<svg width="173" height="201" viewBox="0 0 173 201" fill="none" xmlns="http://www.w3.org/2000/svg">
<path d="M84.1313 200.153C83.6113 200.058 82.4769 199.397 81.5787 198.782C80.6333 198.167 79.4988 197.647 79.0261 197.647C78.5534 197.647 77.9389 197.222 77.6553 196.702C77.3716 196.182 76.7571 195.757 76.2844 195.757C75.8117 195.757 75.1499 195.426 74.7718 195C74.2518 194.339 72.7864 193.44 69.1938 191.55C68.532 191.219 67.5394 190.51 67.0194 190.037C66.4994 189.612 65.5067 189.044 64.7977 188.902C64.1359 188.713 63.1905 188.193 62.7178 187.673C62.2923 187.201 61.536 186.775 61.0633 186.775C60.5906 186.775 59.6452 186.255 58.9834 185.641C58.2743 184.979 57.0926 184.317 56.3835 184.175C55.6272 183.986 54.8709 183.466 54.729 182.946C54.54 182.474 54.02 182.048 53.5473 182.048C53.0746 182.048 52.0346 181.528 51.2783 180.866C50.4747 180.205 49.5293 179.685 49.1511 179.685C48.7257 179.685 48.2057 179.401 48.0166 179.117C47.5439 178.361 45.7476 177.321 44.8968 177.321C44.5186 177.321 43.8568 176.896 43.4314 176.423C42.9587 175.903 41.9187 175.241 41.1151 174.91C40.2643 174.579 39.4134 174.012 39.2243 173.681C39.0352 173.35 38.5153 173.067 38.0898 173.067C37.7117 173.067 36.7662 172.547 35.9626 171.885C35.2063 171.223 34.2609 170.703 33.93 170.703C33.5991 170.703 32.9846 170.42 32.6537 170.089C31.5665 169.096 29.4866 167.867 28.7775 167.867C28.4466 167.867 28.0212 167.536 27.8321 167.158C27.6903 166.78 27.2649 166.449 26.8394 166.449C26.3195 166.449 26.1304 165.929 26.1304 164.416C26.1304 162.242 27.1231 160.776 28.5884 160.776C29.0139 160.776 29.5811 160.446 29.9593 160.02C30.2902 159.642 31.3301 158.886 32.2755 158.413C33.221 157.94 34.2609 157.184 34.5918 156.806C34.97 156.38 35.5372 156.049 35.9154 156.049C36.2935 156.049 37.2389 155.529 38.0425 154.868C38.7989 154.206 39.7443 153.686 40.0752 153.686C40.4533 153.686 40.9733 153.26 41.2569 152.74C41.5406 152.221 42.1551 151.795 42.6278 151.795C43.0532 151.795 43.9514 151.275 44.5659 150.613C45.5586 149.573 46.0785 149.432 49.1039 149.432C51.8928 149.432 52.6491 149.573 53.1691 150.282C53.5 150.802 54.5872 151.464 55.5799 151.748C56.5726 152.079 57.518 152.646 57.6598 153.024C57.8016 153.402 58.1798 153.686 58.5107 153.686C58.8889 153.686 59.787 154.206 60.5433 154.868C61.3469 155.529 62.2923 156.049 62.6705 156.049C63.0959 156.049 63.9941 156.569 64.7031 157.231C65.4122 157.893 66.2158 158.413 66.5467 158.413C66.8303 158.413 67.5866 158.933 68.2012 159.595C68.8157 160.256 69.8084 160.776 70.3756 160.776C70.9428 160.776 72.0301 161.249 72.7864 161.864C74.6299 163.282 75.6699 163.944 77.9862 165.078C79.0734 165.598 80.1133 166.213 80.3024 166.496C80.4442 166.78 81.0587 167.205 81.5787 167.442C82.146 167.678 83.375 168.434 84.2731 169.096C86.3058 170.561 87.0621 170.42 91.0328 167.678C92.6873 166.543 94.8617 165.314 95.8071 164.984C96.7998 164.605 97.7452 164.038 97.8398 163.755C97.9816 163.424 98.3598 163.14 98.6434 163.14C98.9743 163.14 99.9197 162.62 100.818 161.958C101.716 161.296 102.803 160.776 103.276 160.776C103.701 160.776 104.316 160.398 104.552 159.926C104.789 159.453 105.876 158.791 106.916 158.413C108.003 158.082 108.854 157.609 108.854 157.373C108.854 157.137 109.752 156.569 110.886 156.097C111.974 155.624 113.155 154.868 113.534 154.442C113.864 154.017 114.526 153.686 114.999 153.686C115.472 153.686 116.086 153.355 116.417 153.024C116.701 152.646 117.693 152.079 118.592 151.795C119.49 151.511 120.199 151.039 120.199 150.802C120.199 150.566 121.191 149.904 122.373 149.432C123.555 148.912 124.831 148.155 125.209 147.777C125.635 147.399 126.155 147.068 126.438 147.068C126.722 147.068 127.667 146.548 128.518 145.886C129.369 145.224 130.362 144.704 130.787 144.704C131.166 144.704 131.685 144.421 131.875 144.09C132.064 143.759 133.009 143.192 133.907 142.814C134.805 142.483 135.94 141.774 136.413 141.301C136.885 140.828 137.452 140.45 137.736 140.45C138.02 140.45 138.918 139.93 139.721 139.316C140.572 138.701 141.707 138.039 142.321 137.85C142.889 137.708 143.361 137.33 143.361 137.094C143.361 136.858 143.645 136.668 144.023 136.668C144.401 136.668 145.347 136.149 146.056 135.534L147.379 134.4L147.616 123.575L147.852 112.797H160.379H172.905V131.421V150.093L171.724 151.417C171.109 152.126 170.306 152.74 170.022 152.74C169.738 152.74 169.029 153.166 168.415 153.686C167.8 154.206 167.044 154.631 166.713 154.631C166.382 154.631 165.531 155.151 164.775 155.719C164.066 156.333 162.837 156.995 162.128 157.184C161.419 157.326 160.473 157.893 160.001 158.413C159.575 158.933 158.866 159.358 158.393 159.358C157.968 159.358 157.401 159.642 157.212 159.973C157.022 160.304 155.935 160.966 154.848 161.438C153.761 161.911 152.768 162.573 152.674 162.856C152.532 163.187 151.586 163.707 150.546 164.038C149.459 164.416 148.514 164.984 148.372 165.314C148.23 165.693 147.757 165.976 147.332 165.976C146.859 165.976 145.819 166.496 144.969 167.158C144.118 167.82 143.22 168.34 142.936 168.34C142.652 168.34 142.085 168.718 141.612 169.191C141.14 169.663 140.005 170.372 139.107 170.703C138.209 171.034 137.216 171.601 136.98 171.932C136.696 172.216 135.751 172.83 134.853 173.256C133.954 173.681 132.158 174.674 130.835 175.43C129.558 176.234 127.762 177.179 126.958 177.558C126.108 177.983 125.399 178.456 125.399 178.645C125.399 178.834 124.453 179.354 123.271 179.826C122.09 180.346 121.144 180.914 121.144 181.103C121.144 181.339 120.671 181.67 120.104 181.812C119.49 182.001 118.355 182.663 117.504 183.277C116.701 183.892 115.755 184.412 115.472 184.412C115.141 184.412 114.29 184.932 113.486 185.594C112.73 186.255 111.737 186.775 111.265 186.775C110.792 186.775 110.036 187.201 109.563 187.721C109.09 188.241 108.476 188.666 108.239 188.666C107.956 188.666 107.105 189.139 106.301 189.753C105.498 190.368 104.174 191.124 103.323 191.455C102.472 191.786 101.527 192.353 101.243 192.731C100.96 193.11 100.392 193.393 100.014 193.393C99.6361 193.393 98.6906 193.913 97.887 194.575C97.1307 195.237 96.2326 195.757 95.9017 195.757C95.5708 195.757 94.909 196.182 94.4363 196.702C93.9636 197.222 93.2073 197.647 92.7818 197.647C92.3091 197.647 91.411 198.167 90.7492 198.829C89.5674 200.058 86.1167 200.767 84.1313 200.153Z" fill="white"/>
<path d="M0.226169 148.392C0.0370866 147.777 -0.0574516 125.56 0.0370894 98.9939L0.178899 50.6361H1.73883C2.87332 50.6361 4.10235 51.2034 5.85136 52.5269C7.26948 53.5669 8.6876 54.4178 9.01849 54.4178C9.34939 54.4178 10.3421 54.9377 11.1929 55.5995C12.0438 56.2613 12.9419 56.7813 13.2256 56.7813C13.4619 56.7813 14.0764 57.2067 14.5491 57.7267C15.0218 58.2467 15.7782 58.6721 16.2509 58.6721C16.7236 58.6721 17.7163 59.1921 18.4726 59.8539C19.2762 60.5157 20.1271 61.0356 20.458 61.0356C20.7889 61.0356 21.8761 61.6974 22.916 62.5483L24.8541 64.0609L24.476 76.824C24.3341 83.8673 24.2869 90.2016 24.476 90.8633L24.8069 92.1396L27.5958 90.2961C29.1085 89.2561 30.8575 88.2162 31.4247 87.9798C32.0392 87.6962 33.4574 86.8453 34.6391 86.089C35.8209 85.3327 37.2863 84.4345 37.9481 84.1036C38.6099 83.7728 39.7443 83.0164 40.4534 82.4492C41.2097 81.8347 42.2024 81.362 42.6751 81.362C43.1478 81.362 43.6205 81.0783 43.7623 80.7474C43.8569 80.4165 45.6532 79.3293 47.6858 78.2894C49.7657 77.2967 51.7983 76.1622 52.271 75.784C53.1692 74.9804 53.8782 74.555 56.9036 72.9005C58.038 72.286 59.1725 71.4824 59.3616 71.1515C59.5507 70.7734 60.1179 70.4897 60.5434 70.4897C60.9688 70.4897 62.1033 70.017 63.0014 69.4498C64.9868 68.1735 65.9322 67.6535 68.5794 66.2354C69.6666 65.6681 70.7065 65.0064 70.8484 64.77C70.9902 64.5336 71.9829 63.9191 73.0701 63.3992C74.1573 62.8319 76.0008 61.792 77.1826 61.0356C78.3644 60.2793 79.8298 59.4284 80.4915 59.1448C81.1533 58.8612 82.0515 58.1994 82.5242 57.6794C83.7532 56.3558 88.9057 56.4031 90.0875 57.7267C90.5129 58.2467 91.5529 58.8139 92.3092 59.003C93.1128 59.1448 93.9637 59.6648 94.2473 60.1375C94.4836 60.6575 95.0036 61.0356 95.3818 61.0356C95.7127 61.0356 96.6581 61.5556 97.4144 62.2174C98.218 62.8792 99.1161 63.3992 99.447 63.3992C99.8252 63.3992 100.96 64.0609 101.952 64.8173C102.992 65.6209 104.08 66.2354 104.41 66.2354C104.741 66.2354 105.214 66.519 105.403 66.8499C105.592 67.1335 106.632 67.8899 107.672 68.4098C109.374 69.3552 109.563 69.6389 109.657 71.4824C109.799 73.4205 109.657 73.6569 108.098 74.6495C107.199 75.2168 106.207 75.6895 105.923 75.6895C105.639 75.6895 104.694 76.2095 103.843 76.8713C102.992 77.533 102.094 78.053 101.858 78.053C101.621 78.053 101.102 78.4312 100.629 78.9039C100.203 79.4239 99.0216 80.0384 97.9816 80.3693C96.9417 80.6529 96.0908 81.1256 96.0908 81.362C96.0908 81.5983 95.2872 82.1656 94.3418 82.6383C93.3491 83.0637 92.2619 83.7255 91.931 84.0564C91.6001 84.3873 91.0329 84.6709 90.702 84.6709C90.3711 84.6709 89.7093 85.0963 89.2366 85.6163C88.8112 86.089 87.6767 86.7508 86.8258 87.0344C85.9277 87.3653 85.2186 87.7908 85.2186 88.0271C85.2186 88.2635 84.3205 88.9253 83.2332 89.398C82.0988 89.9179 80.3497 90.8633 79.3098 91.5251C78.2698 92.1396 76.5208 93.0851 75.4809 93.6523C74.3936 94.1723 73.2592 94.9286 72.9283 95.3068C72.5974 95.6849 72.0774 96.0158 71.7465 96.0158C71.3683 96.0158 70.4702 96.5358 69.7139 97.1976C68.9103 97.8594 68.1067 98.3794 67.8703 98.3794C67.2085 98.3794 64.8923 99.5139 64.8923 99.8448C64.8923 100.365 70.7538 103.957 72.1247 104.288C72.8337 104.477 73.6373 105.045 73.9209 105.517C74.1573 106.037 74.5827 106.415 74.8664 106.415C75.3391 106.415 83.5641 111.19 84.7932 112.182C85.5495 112.797 87.6767 114.026 90.182 115.302C90.9856 115.728 91.7419 116.295 91.9783 116.626C92.1674 116.957 93.0655 117.477 93.9637 117.76C94.8618 118.044 95.6181 118.517 95.6181 118.753C95.6181 118.989 96.5163 119.651 97.6507 120.171C98.738 120.691 100.487 121.636 101.527 122.251C102.567 122.913 104.174 123.811 105.072 124.236C108.287 125.844 109.327 126.978 109.327 128.869C109.327 130.618 107.956 132.367 106.585 132.414C105.781 132.414 100.818 135.25 100.818 135.723C100.818 135.912 100.251 136.243 99.5416 136.432C98.7852 136.574 97.5562 137.236 96.7053 137.898C95.9017 138.512 94.9091 139.032 94.4836 139.032C94.1055 139.032 93.1601 139.552 92.4037 140.214C91.6001 140.876 90.702 141.396 90.3711 141.396C89.9929 141.396 89.1893 141.821 88.5275 142.341C86.7313 143.759 82.7133 143.617 80.8697 142.105C80.1134 141.443 79.2152 140.923 78.8844 140.923C78.5535 140.923 77.8917 140.497 77.419 139.977C76.9463 139.457 76.2845 139.032 75.9536 139.032C75.6227 139.032 74.7245 138.512 73.9682 137.85C73.1646 137.188 72.2192 136.668 71.841 136.668C71.4156 136.668 70.8956 136.385 70.7065 136.054C70.5175 135.723 69.572 135.061 68.6266 134.636C67.6812 134.21 66.6413 133.549 66.3104 133.123C65.9795 132.745 65.365 132.414 64.8923 132.414C64.4196 132.414 63.8051 132.083 63.4742 131.705C63.1433 131.28 61.867 130.476 60.6852 129.862C56.1 127.593 55.2018 127.025 54.8236 126.411C54.6346 126.08 54.2564 125.796 53.9728 125.796C53.7364 125.796 51.562 124.615 49.1985 123.196C46.8349 121.778 44.6132 120.597 44.235 120.597C43.9042 120.597 43.6205 120.36 43.6205 120.077C43.6205 119.84 42.8642 119.273 41.9188 118.895C41.0206 118.517 39.2244 117.477 37.9481 116.579C35.7263 115.019 34.4028 114.262 30.5739 112.324C29.5812 111.851 28.3049 111.048 27.7849 110.575C27.2176 110.102 26.2722 109.677 25.6577 109.63L24.476 109.488L24.2396 123.527C24.0978 131.232 23.8614 137.661 23.7196 137.85C23.3415 138.181 20.458 139.741 16.2036 141.916C14.5019 142.766 12.2802 143.995 11.2402 144.704C8.49852 146.454 7.60037 147.021 6.51315 147.493C5.94591 147.73 5.23685 148.25 4.90595 148.675C4.52779 149.148 3.53511 149.432 2.44789 149.432C0.935229 149.432 0.509792 149.242 0.226169 148.392Z" fill="white"/>
<path d="M154.943 87.5544L147.852 87.2708L147.71 76.5404L147.616 65.81L145.819 64.4391C144.118 63.0683 142.558 62.1701 138.303 60.0902C137.169 59.523 136.271 58.9085 136.271 58.6721C136.271 58.4357 135.373 57.963 134.285 57.6322C133.151 57.3013 131.969 56.6867 131.638 56.214C131.307 55.7413 130.787 55.3632 130.551 55.3632C130.267 55.3632 129.369 54.8432 128.518 54.1814C127.667 53.5196 126.628 52.9996 126.202 52.9996C125.777 52.9996 125.304 52.7633 125.162 52.5269C124.973 52.2433 123.886 51.487 122.657 50.8725C120.057 49.4543 119.064 48.8871 117.032 47.469C116.228 46.8545 115.235 46.3818 114.904 46.3818C114.574 46.3818 113.486 45.8618 112.541 45.2C111.596 44.5382 110.603 44.0182 110.366 44.0182C110.13 44.0182 109.563 43.5928 109.09 43.0728C108.617 42.5528 107.388 41.8911 106.396 41.5602C105.403 41.2765 104.599 40.8511 104.599 40.662C104.599 40.4257 103.89 39.953 103.04 39.6221C102.189 39.2439 101.149 38.6767 100.771 38.2985C100.014 37.5894 98.4543 36.644 95.3817 35.0841C94.3418 34.5169 92.8764 33.666 92.0728 33.1933C91.3164 32.6733 90.2765 32.2479 89.8511 32.2479C89.3784 32.2006 89.0002 32.0115 89.0002 31.7279C89.0002 31.4915 88.3857 30.9716 87.6293 30.5934C86.353 29.9316 86.164 29.9316 84.6986 31.0188C83.8004 31.6333 82.5714 32.3897 81.9569 32.6733C81.3424 32.9569 80.586 33.4769 80.3024 33.8078C80.0188 34.1387 79.0261 34.7059 78.128 35.0368C77.2298 35.3677 76.2371 35.8877 76.0008 36.1713C75.5281 36.644 74.9608 36.9749 70.9428 39.1966C70.092 39.6221 69.2411 40.2366 69.052 40.5202C68.8629 40.8038 67.823 41.3238 66.7358 41.6547C65.6958 42.0329 64.7031 42.6001 64.5613 42.9783C64.4195 43.3092 63.4741 43.9237 62.4814 44.3491C61.4415 44.7273 60.6379 45.2473 60.6379 45.4363C60.6379 45.6727 60.2124 46.0036 59.6925 46.1454C59.1252 46.3345 58.3689 46.8072 57.8962 47.2799C57.4707 47.7053 56.289 48.3671 55.249 48.698C54.2563 49.0289 53.0273 49.738 52.5546 50.2107C51.8928 50.8725 50.9947 51.1088 49.1511 51.1088C47.0712 51.1088 46.2676 50.8725 44.755 49.6907C43.7623 48.9344 42.7696 48.2726 42.5332 48.2726C42.3442 48.2726 40.8788 47.3272 39.2243 46.1927C37.6171 45.0582 35.8208 44.0182 35.2536 43.8292C34.6391 43.6401 34.1664 43.3092 34.1664 43.0728C34.1664 42.6947 31.0938 40.7093 27.9267 39.1494C26.2722 38.2985 26.1304 38.1094 26.1304 36.2186C26.1304 34.1387 26.5558 33.6187 29.6757 31.917C33.5046 29.8371 35.4427 28.7026 36.1045 28.1353C36.4826 27.7572 37.1444 27.4735 37.5698 27.4735C37.948 27.4735 39.0825 26.859 40.0752 26.0554C41.0679 25.2991 42.1551 24.6373 42.486 24.6373C42.8169 24.6373 43.2896 24.3537 43.4787 24.0228C43.6677 23.6919 44.5186 23.1247 45.3695 22.7938C46.1731 22.4629 47.213 21.8011 47.6857 21.2811C48.1112 20.8084 48.9148 20.383 49.4347 20.383C49.9075 20.383 50.9474 19.9103 51.7037 19.343C55.249 16.554 55.8635 16.1286 56.4308 16.1286C56.7144 16.1286 57.7071 15.6086 58.558 14.9468C59.4088 14.2851 60.3542 13.7651 60.6851 13.7651C61.016 13.7651 61.9614 13.2451 62.8123 12.5833C63.6632 11.9215 64.5613 11.4016 64.8449 11.4016C65.1286 11.4016 65.6013 10.9761 65.9322 10.4561C66.2631 9.93617 66.8776 9.51073 67.2557 9.51073C67.6339 9.51073 68.7211 9.03803 69.6193 8.47078C70.5174 7.90354 72.0301 7.05267 72.9282 6.57996C73.8263 6.10726 75.1499 5.35093 75.8117 4.92549C78.7425 2.89286 80.3024 1.94745 80.6333 1.94745C80.8697 1.94745 81.5787 1.52201 82.2405 1.00204C84.0841 -0.41608 88.2911 -0.321539 90.4183 1.23839C91.3164 1.90018 92.4037 2.42015 92.8764 2.42015C93.3018 2.42015 93.9163 2.84559 94.2 3.31829C94.4363 3.83827 95.429 4.50006 96.3271 4.78368C97.2253 5.0673 97.9816 5.49274 97.9816 5.68182C97.9816 5.91817 98.9743 6.43815 100.251 6.91085C101.48 7.38356 102.661 8.04535 102.85 8.42351C103.04 8.7544 103.465 9.03803 103.796 9.03803C104.127 9.03803 105.734 9.93617 107.436 11.0707C109.137 12.1579 111.265 13.3869 112.163 13.7651C113.061 14.096 114.006 14.7105 114.195 15.0414C114.384 15.3723 115.235 15.9868 116.086 16.365C117.599 17.074 119.442 18.114 121.617 19.5321C122.279 19.9575 123.319 20.4302 123.98 20.6193C124.642 20.8557 125.446 21.3756 125.777 21.8483C126.108 22.3683 126.675 22.7465 127.053 22.7465C127.384 22.7465 128.329 23.2665 129.086 23.9283C129.889 24.59 130.929 25.11 131.449 25.11C131.969 25.11 132.631 25.3936 132.915 25.7718C133.245 26.15 134.191 26.8118 135.089 27.2372C135.987 27.6626 136.743 28.1826 136.743 28.419C136.743 28.6553 137.452 29.0335 138.351 29.3644C139.202 29.648 140.336 30.3098 140.761 30.7825C141.234 31.3025 141.943 31.7279 142.369 31.7279C142.794 31.7279 143.929 32.2479 144.874 32.9097C145.819 33.5714 146.765 34.0914 146.907 34.0914C147.096 34.0914 147.899 34.6114 148.75 35.2732C149.601 35.935 150.641 36.4549 151.066 36.4549C151.445 36.4549 152.106 36.7386 152.437 37.1167C152.815 37.4476 153.761 38.1094 154.564 38.5348C155.415 38.9603 156.975 39.9057 158.11 40.662C159.244 41.3711 161.04 42.3638 162.175 42.8365C163.262 43.3564 164.16 43.9237 164.16 44.1128C164.16 44.3491 164.964 44.9164 165.957 45.3418C168.746 46.6654 170.542 47.9417 171.818 49.4543L173 50.8725L172.953 69.308L172.905 87.7435L167.469 87.7908C164.491 87.7908 158.866 87.6962 154.943 87.5544Z" fill="white"/>
</svg>
